HIERARCHY
ROOT joint_Root
{
	OFFSET 0.0 0.0 0.0
	CHANNELS 6 Xposition Yposition Zposition Zrotation Xrotation Yrotation 
	JOINT Hips
	{
		OFFSET -17.1583 93.1646 452.98
		CHANNELS 6 Xposition Yposition Zposition Zrotation Xrotation Yrotation 
		JOINT Spine
		{
			OFFSET 15.7357 0.0 0.0
			CHANNELS 6 Xposition Yposition Zposition Zrotation Xrotation Yrotation 
			JOINT Chest
			{
				OFFSET 8.98455 -0.406207 0.0
				CHANNELS 6 Xposition Yposition Zposition Zrotation Xrotation Yrotation 
				JOINT Neck
				{
					OFFSET 16.3773 0.0 0.0
					CHANNELS 6 Xposition Yposition Zposition Zrotation Xrotation Yrotation 
					JOINT Head
					{
						OFFSET 6.45672 0.0 0.0
						CHANNELS 6 Xposition Yposition Zposition Zrotation Xrotation Yrotation 
						End Site
						{
							OFFSET 0.0 0.0 0.0
						}
					}
				}
				JOINT Shoulder_L
				{
					OFFSET 12.9942 -0.242716 4.98039
					CHANNELS 6 Xposition Yposition Zposition Zrotation Xrotation Yrotation 
					JOINT UpperArm_L
					{
						OFFSET 5.34809 0.0 0.0
						CHANNELS 6 Xposition Yposition Zposition Zrotation Xrotation Yrotation 
						JOINT LowerArm_L
						{
							OFFSET 24.3286 1.87007e-05 0.0
							CHANNELS 6 Xposition Yposition Zposition Zrotation Xrotation Yrotation 
							JOINT Hand_L
							{
								OFFSET 22.2916 0.0 0.0
								CHANNELS 6 Xposition Yposition Zposition Zrotation Xrotation Yrotation 
								End Site
								{
									OFFSET 0.0 0.0 0.0
								}
							}
						}
					}
				}
				JOINT Shoulder_R
				{
					OFFSET 12.9945 -0.242716 -4.98039
					CHANNELS 6 Xposition Yposition Zposition Zrotation Xrotation Yrotation 
					JOINT UpperArm_R
					{
						OFFSET -5.34813 0.0 0.0
						CHANNELS 6 Xposition Yposition Zposition Zrotation Xrotation Yrotation 
						JOINT LowerArm_R
						{
							OFFSET -24.3289 0.000322201 0.0
							CHANNELS 6 Xposition Yposition Zposition Zrotation Xrotation Yrotation 
							JOINT Hand_R
							{
								OFFSET -22.2915 -0.000108084 0.0
								CHANNELS 6 Xposition Yposition Zposition Zrotation Xrotation Yrotation 
								End Site
								{
									OFFSET 0.0 0.0 0.0
								}
							}
						}
					}
				}
			}
		}
		JOINT UpperLeg_L
		{
			OFFSET -2.19248 -6.46944 0.0
			CHANNELS 6 Xposition Yposition Zposition Zrotation Xrotation Yrotation 
			JOINT LowerLeg_L
			{
				OFFSET 39.0811 0.0 -1.23785e-05
				CHANNELS 6 Xposition Yposition Zposition Zrotation Xrotation Yrotation 
				JOINT Foot_L
				{
					OFFSET 40.9854 0.0 -1.26872e-05
					CHANNELS 6 Xposition Yposition Zposition Zrotation Xrotation Yrotation 
					JOINT Toes_L
					{
						OFFSET 11.7543 0.0 0.0
						CHANNELS 6 Xposition Yposition Zposition Zrotation Xrotation Yrotation 
						End Site
						{
							OFFSET 0.0 0.0 0.0
						}
					}
				}
			}
		}
		JOINT UpperLeg_R
		{
			OFFSET -2.19251 6.46944 0.0
			CHANNELS 6 Xposition Yposition Zposition Zrotation Xrotation Yrotation 
			JOINT LowerLeg_R
			{
				OFFSET -39.0811 -0.00228153 -0.0401928
				CHANNELS 6 Xposition Yposition Zposition Zrotation Xrotation Yrotation 
				JOINT Foot_R
				{
					OFFSET -40.9854 0.0 0.0
					CHANNELS 6 Xposition Yposition Zposition Zrotation Xrotation Yrotation 
					JOINT Toes_R
					{
						OFFSET -11.7543 0.0 0.0
						CHANNELS 6 Xposition Yposition Zposition Zrotation Xrotation Yrotation 
						End Site
						{
							OFFSET 0.0 0.0 0.0
						}
					}
				}
			}
		}
	}
}
MOTION
Frames:	5
Frame Time:	0.0333333
0.000000 0.000000 0.000000 0.000000 0.000000 -0.000000 -3.459320 87.887500 -5.714480 -93.122300 -2.003380 172.272000 15.735700 0.000005 -0.000001 101.437000 85.135200 -101.858000 8.984550 -0.406207 -0.000000 1.778720 1.950100 -0.871025 16.377300 -0.000001 -0.000001 -4.514940 -0.189555 0.449809 6.456720 -0.000001 -0.000000 -1.718170 -2.228230 -2.848500 12.994200 -0.242716 4.980390 -92.025500 5.793990 -70.692900 5.348090 -0.000007 -0.000001 -59.568300 -18.660200 22.337700 24.328600 0.000019 0.000005 39.799800 28.173000 -60.460700 22.291600 -0.000001 0.000005 49.364100 4.072950 23.181300 12.994500 -0.242716 -4.980390 89.390800 2.453060 -76.048100 -5.348130 -0.000001 -0.000004 -72.661500 4.916230 4.535470 -24.328900 0.000322 -0.000009 9.306640 4.802300 -62.957200 -22.291500 -0.000108 -0.000004 52.380500 5.438180 -4.218050 -2.192480 -6.469440 -0.000000 173.844000 1.804530 -37.267200 39.081100 -0.000007 -0.000012 0.691244 -0.774926 41.735500 40.985400 -0.000006 -0.000013 5.651310 10.213400 -71.791800 11.754300 -0.000000 0.000003 0.002340 0.104215 -12.350600 -2.192510 6.469440 -0.000001 179.246000 10.517000 170.121000 -39.081100 -0.002282 -0.040193 0.291688 -0.114712 68.320500 -40.985400 0.000008 0.000006 0.807483 -16.240300 -37.154300 -11.754300 -0.000006 -0.000006 -0.000005 0.167746 -9.769640
0.000000 0.000000 0.000000 0.000000 0.000000 -0.000000 -3.865110 85.313300 -14.329900 -93.942600 -2.539890 174.084000 15.735700 0.000005 -0.000001 90.183700 84.115700 -90.783700 8.984550 -0.406207 -0.000000 4.003130 0.057363 -1.200650 16.377300 -0.000001 -0.000001 -5.750640 0.151814 0.296384 6.456720 -0.000001 -0.000000 -2.833660 -1.132260 -2.878540 12.994200 -0.242716 4.980390 -92.791700 7.985740 -70.658900 5.348090 -0.000007 -0.000001 -63.627600 -16.867600 14.430500 24.328600 0.000019 0.000005 39.911500 26.777300 -61.692700 22.291600 -0.000001 0.000005 49.287600 3.993850 24.313800 12.994500 -0.242716 -4.980390 89.196300 3.206720 -75.922700 -5.348130 -0.000001 -0.000004 -71.850800 2.279220 6.240130 -24.328900 0.000322 -0.000009 8.689770 7.956890 -47.824500 -22.291500 -0.000108 -0.000004 53.745100 5.465430 -5.198430 -2.192480 -6.469440 -0.000000 172.584000 0.900886 -35.212300 39.081100 -0.000007 -0.000012 0.957655 -0.731525 52.628000 40.985400 -0.000006 -0.000013 8.584580 10.453400 -79.211200 11.754300 -0.000000 0.000003 -0.001047 0.183695 -9.125170 -2.192510 6.469440 -0.000001 178.239000 10.509300 161.045000 -39.081100 -0.002282 -0.040193 0.242822 -0.031586 82.506200 -40.985400 0.000008 0.000006 2.094570 -18.323200 -40.245200 -11.754300 -0.000006 -0.000006 -0.000560 0.176608 -9.409680
0.000000 0.000000 0.000000 0.000000 0.000000 -0.000000 -4.183370 83.868800 -22.957800 -94.357100 -3.031490 175.018000 15.735700 0.000005 -0.000001 83.089100 83.457200 -83.764000 8.984550 -0.406207 -0.000000 5.217190 -1.556150 -1.277570 16.377300 -0.000001 -0.000001 -6.015630 0.193447 0.034491 6.456720 -0.000001 -0.000000 -3.180470 -0.071687 -2.464320 12.994200 -0.242716 4.980390 -92.734500 8.344070 -71.782300 5.348090 -0.000007 -0.000001 -68.196100 -14.967900 7.285750 24.328600 0.000019 0.000005 43.823800 23.785100 -67.205400 22.291600 -0.000001 0.000005 48.111900 4.025650 23.860800 12.994500 -0.242716 -4.980390 89.012100 3.643730 -74.819000 -5.348130 -0.000001 -0.000004 -69.976700 -0.455963 8.100860 -24.328900 0.000322 -0.000009 4.194950 6.815630 -31.714600 -22.291500 -0.000108 -0.000004 51.687800 5.444760 -4.452900 -2.192480 -6.469440 -0.000000 172.115000 2.113790 -29.295900 39.081100 -0.000007 -0.000012 1.215330 -0.803868 56.522500 40.985400 -0.000006 -0.000013 9.738520 8.726010 -87.575700 11.754300 -0.000000 0.000003 -0.000570 0.176722 -9.408530 -2.192510 6.469440 -0.000001 178.334000 8.817120 151.103000 -39.081100 -0.002282 -0.040193 0.085995 0.002329 91.673000 -40.985400 0.000008 0.000006 2.874130 -16.129900 -45.028700 -11.754300 -0.000006 -0.000006 -0.000389 0.173979 -9.516460
0.000000 0.000000 0.000000 0.000000 0.000000 -0.000000 -4.021850 84.264100 -31.889900 -92.962400 -2.503540 174.913000 15.735700 0.000005 -0.000001 76.010300 83.588200 -76.136700 8.984550 -0.406207 -0.000000 4.679240 -3.090990 -0.126225 16.377300 -0.000001 -0.000001 -5.073010 1.264350 -0.657620 6.456720 -0.000001 -0.000000 -2.232090 1.422780 -2.406730 12.994200 -0.242716 4.980390 -92.596800 7.953960 -71.853500 5.348090 -0.000007 -0.000001 -69.954500 -11.873300 2.613900 24.328600 0.000019 0.000005 49.620200 19.572200 -74.096300 22.291600 -0.000001 0.000005 46.818200 3.993120 24.324000 12.994500 -0.242716 -4.980390 89.052600 3.355630 -74.223300 -5.348130 -0.000001 -0.000004 -67.140800 -5.974540 12.737500 -24.328900 0.000322 -0.000009 3.397020 8.251610 -22.478200 -22.291500 -0.000108 -0.000004 51.596800 5.421630 -3.654940 -2.192480 -6.469440 -0.000000 174.796000 1.438910 -21.049700 39.081100 -0.000007 -0.000012 0.358499 -0.270996 52.913800 40.985400 -0.000006 -0.000013 4.808480 11.771600 -89.675600 11.754300 -0.000000 0.000003 0.000945 0.149821 -10.500800 -2.192510 6.469440 -0.000001 -179.517000 4.949810 142.375000 -39.081100 -0.002282 -0.040193 -0.060497 -0.003539 93.096900 -40.985400 0.000008 0.000006 2.178420 -15.486300 -52.127900 -11.754300 -0.000006 -0.000006 -0.000708 0.178841 -9.318960
0.000000 0.000000 0.000000 0.000000 0.000000 -0.000000 -3.426780 86.278200 -41.183600 -90.369800 -1.533340 173.882000 15.735700 0.000005 -0.000001 67.073900 84.035500 -66.137800 8.984550 -0.406207 -0.000000 3.268990 -4.678430 2.004690 16.377300 -0.000001 -0.000001 -3.358040 2.550360 -1.617230 6.456720 -0.000001 -0.000000 -1.834680 3.534400 -2.925640 12.994200 -0.242716 4.980390 -92.486900 7.503340 -71.603100 5.348090 -0.000007 -0.000001 -69.759200 -10.760200 0.247007 24.328600 0.000019 0.000005 53.529000 14.103400 -79.789400 22.291600 -0.000001 0.000005 47.156600 3.913910 25.435600 12.994500 -0.242716 -4.980390 89.323000 2.310590 -73.663400 -5.348130 -0.000001 -0.000004 -62.889000 -11.343400 18.472700 -24.328900 0.000322 -0.000009 3.545140 9.798640 -20.008700 -22.291500 -0.000108 -0.000004 52.792500 5.394040 -2.746910 -2.192480 -6.469440 -0.000000 178.739000 -0.389844 -11.269300 39.081100 -0.000007 -0.000012 -0.001665 0.001763 43.402800 40.985400 -0.000006 -0.000013 1.056430 15.196200 -85.233800 11.754300 -0.000000 0.000003 0.002276 0.059369 -14.168700 -2.192510 6.469440 -0.000001 -176.345000 0.234354 136.535000 -39.081100 -0.002282 -0.040193 -0.151017 0.009755 86.352600 -40.985400 0.000008 0.000006 1.483750 -19.591500 -58.629500 -11.754300 -0.000006 -0.000006 -0.000792 0.180072 -9.268930
